<?xml version="1.0" encoding="UTF-8"?>
<!DOCTYPE svg PUBLIC "-//W3C//DTD SVG 1.1//EN" "http://www.w3.org/Graphics/SVG/1.1/DTD/svg11.dtd">
<svg xmlns="http://www.w3.org/2000/svg" version="1.1" width="256px" height="256px" style="shape-rendering:geometricPrecision; text-rendering:geometricPrecision; image-rendering:optimizeQuality; fill-rule:evenodd; clip-rule:evenodd" xmlns:xlink="http://www.w3.org/1999/xlink">
<g><path style="opacity:0.79" fill="#000000" d="M 129.5,32.5 C 134.412,32.0631 139.078,32.8964 143.5,35C 154.333,45.8333 165.167,56.6667 176,67.5C 181.555,77.4979 179.389,85.3312 169.5,91C 165.459,91.1735 161.459,91.6735 157.5,92.5C 158.52,94.4325 158.687,96.4325 158,98.5C 155.833,100.667 153.667,102.833 151.5,105C 175,128.5 198.5,152 222,175.5C 226.998,181.831 226.498,187.665 220.5,193C 216.5,195 212.5,195 208.5,193C 184.333,168.833 160.167,144.667 136,120.5C 133.833,122.667 131.667,124.833 129.5,127C 127.231,127.758 125.064,127.591 123,126.5C 122.5,127 122,127.5 121.5,128C 124.416,139.999 119.75,146.832 107.5,148.5C 103.762,148.421 100.428,147.254 97.5,145C 87,134.5 76.5,124 66,113.5C 60.1508,96.1895 66.3175,87.8561 84.5,88.5C 83.4798,86.5675 83.3131,84.5675 84,82.5C 93.8333,72.6667 103.667,62.8333 113.5,53C 115.701,52.1751 117.534,52.6751 119,54.5C 119.333,54.1667 119.667,53.8333 120,53.5C 117.872,44.0352 121.038,37.0352 129.5,32.5 Z M 131.5,38.5 C 134.32,38.2475 136.986,38.7475 139.5,40C 150,50.5 160.5,61 171,71.5C 174.329,79.1736 171.996,84.1736 164,86.5C 162.184,85.6705 160.351,84.8372 158.5,84C 148,73.5 137.5,63 127,52.5C 124.214,46.414 125.714,41.7473 131.5,38.5 Z M 124.5,57.5 C 134.913,66.409 144.913,75.909 154.5,86C 153.333,87.1667 152.167,88.3333 151,89.5C 141.667,80.1667 132.333,70.8333 123,61.5C 122.7,59.9343 123.2,58.601 124.5,57.5 Z M 114.5,60.5 C 127.247,71.7439 139.58,83.5773 151.5,96C 143.319,104.348 134.986,112.514 126.5,120.5C 114.347,108.848 102.347,97.0142 90.5,85C 98.7024,76.965 106.702,68.7983 114.5,60.5 Z M 90.5,91.5 C 100.913,100.409 110.913,109.909 120.5,120C 119.234,121.983 117.568,122.983 115.5,123C 106.167,113.667 96.8333,104.333 87.5,95C 88.7101,93.9609 89.7101,92.7942 90.5,91.5 Z M 76.5,94.5 C 79.8524,94.7837 82.8524,95.9504 85.5,98C 95,107.5 104.5,117 114,126.5C 118.719,134.721 116.552,140.054 107.5,142.5C 105.39,141.946 103.39,141.112 101.5,140C 91.3333,129.833 81.1667,119.667 71,109.5C 67.8377,102.514 69.6711,97.5142 76.5,94.5 Z M 146.5,109.5 C 171.508,133.508 195.842,158.175 219.5,183.5C 218.533,187.323 216.199,188.823 212.5,188C 188.5,164 164.5,140 140.5,116C 142.706,113.963 144.706,111.797 146.5,109.5 Z"/></g>
<g><path style="opacity:0.788" fill="#000000" d="M 56.5,175.5 C 83.1687,175.333 109.835,175.5 136.5,176C 140.892,177.606 143.225,180.772 143.5,185.5C 148.645,185.492 152.811,187.492 156,191.5C 160.184,201.384 162.351,211.55 162.5,222C 118.5,222.667 74.5,222.667 30.5,222C 29.9415,221.275 29.6082,220.442 29.5,219.5C 31.8721,209.675 34.7054,200.008 38,190.5C 41.5751,187.396 45.7418,185.729 50.5,185.5C 50.4694,180.887 52.4694,177.553 56.5,175.5 Z M 57.5,179.5 C 83.8354,179.333 110.169,179.5 136.5,180C 138.607,181.264 139.607,183.097 139.5,185.5C 110.826,185.833 82.1589,185.5 53.5,184.5C 54.1598,182.185 55.4931,180.519 57.5,179.5 Z M 48.5,191.5 C 80.5017,191.333 112.502,191.5 144.5,192C 147.276,192.066 149.442,193.232 151,195.5C 152.636,199.71 153.803,204.044 154.5,208.5C 147.492,208.334 140.492,208.5 133.5,209C 132.663,210.011 132.33,211.178 132.5,212.5C 140.174,212.334 147.841,212.5 155.5,213C 156.337,214.011 156.67,215.178 156.5,216.5C 116.499,216.667 76.4986,216.5 36.5,216C 37.3366,214.989 37.67,213.822 37.5,212.5C 59.1667,212.5 80.8333,212.5 102.5,212.5C 102.67,211.178 102.337,210.011 101.5,209C 80.5,208.667 59.5,208.333 38.5,208C 40.0742,203.541 41.5742,199.041 43,194.5C 44.8761,193.391 46.7095,192.391 48.5,191.5 Z"/></g>
<g><path style="opacity:0.593" fill="#000000" d="M 107.5,208.5 C 113.176,208.334 118.843,208.501 124.5,209C 125.337,210.011 125.67,211.178 125.5,212.5C 119.167,212.5 112.833,212.5 106.5,212.5C 106.433,211.041 106.766,209.708 107.5,208.5 Z"/></g>
</svg>
